# xmcd
#
# Track frame offsets: 
#        3014
#        12085
#        17890
#        27720
#        40852
#        47705
#        56355
#        64660
#        72702
#        83055
#        94167
#        104815
#        116752
#        123330
#        132027
#        141367
#        152665
#        161600
#        171120
#        180507
#
# Disc length: 2548 seconds
#
# Revision: 0
# Processed by: cddbd v1.5.2PL0 Copyright (c) Steve Scherf et al.
# Submitted via: ExactAudioCopy v0.95b4
#
DISCID=1909cc14
DTITLE=Hank Williams - The Complete Hank Williams [05] The Montgomery 
DTITLE=Demos And Radio Performances
DYEAR=1900
DGENRE=Country
TTITLE0=Happy Rovin' Cowboy
TTITLE1=Freight Train Blues
TTITLE2=San Antonio Rose
TTITLE3=I'm Not Coming Home Any More
TTITLE4=I Ain't Gonna Love You Any More
TTITLE5=Won't You Sometimes Think Of Me
TTITLE6=Why Should I Cry
TTITLE7=I Watched My Dream World Crumble Like Clay
TTITLE8=I Told A Lie To My Heart
TTITLE9=Mother Is Gone
TTITLE10=In My Dreams You Still Belong To Me
TTITLE11=We're Getting Closer To The Grave Each Day
TTITLE12=(I'm) Going Home
TTITLE13=Calling You
TTITLE14=Pan American
TTITLE15=Wealth Won't Save Your Soul
TTITLE16=Honky Tonk Blues
TTITLE17=A Home In Heaven
TTITLE18=You Broke Your Own Heart
TTITLE19=I'm So Tired Of It All
EXTD=
EXTT0=
EXTT1=
EXTT2=
EXTT3=
EXTT4=
EXTT5=
EXTT6=
EXTT7=
EXTT8=
EXTT9=
EXTT10=
EXTT11=
EXTT12=
EXTT13=
EXTT14=
EXTT15=
EXTT16=
EXTT17=
EXTT18=
EXTT19=
PLAYORDER=
